#!OML:ASF F:\VICON\USERDATA\INSTALL\Justin_Nancy\Justin_Nancy.ASF
:FULLY-SPECIFIED
:DEGREES
128
root -16.0788 17.0495 14.0148 -142.538 -77.8342 155.984
lowerback 15.1235 -1.10151 0.944476
upperback 2.51542 -1.27623 3.1977
thorax -5.75104 -0.691597 3.113
lowerneck -14.0336 -0.325125 -6.73451
upperneck 11.8317 0.783937 0.735403
head 5.86086 0.114735 1.3932
rclavicle 6.52014e-014 -7.95139e-015
rhumerus -55.5709 10.3023 -93.5527
rradius 117.588
rwrist 1.97634
rhand -20.3063 22.7561
rfingers 7.12502
rthumb 6.04409 -7.1377
lclavicle 6.52014e-014 -7.95139e-015
lhumerus -45.6315 -8.38174 92.9895
lradius 91.5843
lwrist 20.2473
lhand -20.5511 3.767
lfingers 7.12502
lthumb 5.80776 33.6674
rfemur -28.6187 -10.9342 38.9762
rtibia 41.9829
rfoot -6.99346 0.0761399
rtoes 12.1414
lfemur -15.3759 -3.24368 -12.9349
ltibia 72.3583
lfoot 19.0887 -3.32257
ltoes -5.91887
129
root -16.4589 17.0029 14.0784 -146.369 -77.9434 159.515
lowerback 15.5182 -0.925172 1.33861
upperback 2.54342 -0.959932 3.63981
thorax -5.95014 -0.548511 3.31127
lowerneck -14.266 -0.339054 -7.38189
upperneck 12.0373 0.916 0.725448
head 5.95945 0.140327 1.50767
rclavicle 4.45278e-014 -1.43125e-014
rhumerus -53.3069 11.7989 -93.1987
rradius 117.579
rwrist 3.97031
rhand -22.2194 22.3469
rfingers 7.12502
rthumb 4.1969 -7.5915
lclavicle 4.45278e-014 -1.43125e-014
lhumerus -46.4715 -7.09976 93.2403
lradius 89.8741
lwrist 20.8588
lhand -20.9256 3.95493
lfingers 7.12502
lthumb 5.44617 33.8649
rfemur -26.532 -10.4028 38.93
rtibia 41.725
rfoot -8.42872 -0.893208
rtoes 10.7562
lfemur -17.8182 -2.5562 -11.2278
ltibia 75.7374
lfoot 16.3735 -3.2669
ltoes -6.25735
130
root -16.8326 16.9541 14.1482 -148.138 -77.9658 161.249
lowerback 15.6383 -0.890979 1.55461
upperback 2.50604 -0.866622 3.86383
thorax -6.05963 -0.50806 3.41462
lowerneck -14.5539 -0.228474 -7.74183
upperneck 12.1713 1.17633 0.650807
head 6.03962 0.238075 1.56707
rclavicle 1.59028e-015 -2.38542e-014
rhumerus -51.1223 13.4584 -92.8895
rradius 117.808
rwrist 5.92667
rhand -24.214 22.5236
rfingers 7.12502
rthumb 2.27072 -7.44405
lclavicle 1.59028e-015 -2.38542e-014
lhumerus -47.3385 -5.6001 92.95
lradius 88.4127
lwrist 20.8701
lhand -21.0943 4.1279
lfingers 7.12502
lthumb 5.28331 34.042
rfemur -24.8535 -10.047 38.595
rtibia 41.4552
rfoot -9.66302 -1.73294
rtoes 8.6681
lfemur -20.7784 -1.89673 -9.9709
ltibia 78.684
lfoot 13.906 -2.84418
ltoes -5.54959
131
root -17.202 16.9062 14.2271 -150.846 -78.1529 164.54
lowerback 15.237 -0.959822 2.23822
upperback 2.26666 -0.831742 4.20664
thorax -6.1009 -0.502421 3.38033
lowerneck -14.7154 -0.0660662 -8.15114
upperneck 12.2645 1.51578 0.505178
head 6.08231 0.365607 1.61826
rclavicle 3.89618e-014 -3.33958e-014
rhumerus -48.6139 14.4372 -92.0909
rradius 119.859
rwrist -0.684867
rhand -16.1435 22.6948
rfingers 7.12502
rthumb 10.0617 -7.04468
lclavicle 3.89618e-014 -3.33958e-014
lhumerus -48.6015 -3.90063 92.6975
lradius 87.4952
lwrist 20.164
lhand -21.5161 4.27386
lfingers 7.12502
lthumb 4.87603 34.1978
rfemur -23.723 -9.23107 38.7525
rtibia 41.0512
rfoot -10.661 -2.8639
rtoes 4.98934
lfemur -24.6316 -1.04641 -8.44451
ltibia 81.2439
lfoot 11.8472 -2.36247
ltoes -6.25853
132
root -17.5698 16.8812 14.2692 -156.206 -77.9688 169.338
lowerback 16.2834 -0.676638 2.35756
upperback 2.29278 -0.381667 4.76036
thorax -6.66327 -0.292762 3.84884
lowerneck -14.8624 -0.0964304 -8.67109
upperneck 12.4013 1.61414 0.386991
head 6.14623 0.370443 1.67392
rclavicle -1.19271e-014 4.77083e-015
rhumerus -46.6177 16.1465 -92.3422
rradius 120.393
rwrist -0.304943
rhand -17.7308 22.5977
rfingers 7.12502
rthumb 8.53015 -7.21
lclavicle -1.19271e-014 4.77083e-015
lhumerus -50.0061 -2.47844 92.8365
lradius 87.151
lwrist 19.4114
lhand -21.7662 4.29639
lfingers 7.12502
lthumb 4.63449 34.2257
rfemur -20.9989 -7.62832 38.8374
rtibia 40.3618
rfoot -11.5778 -4.20617
rtoes 3.72951
lfemur -26.7121 0.286403 -6.63413
ltibia 82.9287
lfoot 9.02725 -2.69853
ltoes -9.71279
133
root -17.948 16.8615 14.2801 -159.301 -77.6318 172.094
lowerback 16.7853 -0.384115 2.03062
upperback 2.32626 -0.0244053 5.06595
thorax -6.92067 -0.113558 4.30318
lowerneck -14.7186 -0.124467 -8.76677
upperneck 12.2477 1.59296 0.267731
head 6.07534 0.350128 1.6467
rclavicle -1.11319e-014 6.20208e-014
rhumerus -44.7207 17.9688 -92.6764
rradius 121.061
rwrist -0.295781
rhand -19.255 22.8603
rfingers 7.12502
rthumb 7.05904 -7.00194
lclavicle -1.11319e-014 6.20208e-014
lhumerus -51.3836 -1.14327 92.598
lradius 87.0492
lwrist 18.7816
lhand -21.7727 3.90665
lfingers 7.12502
lthumb 4.62824 33.8361
rfemur -18.4239 -6.2444 38.5905
rtibia 39.4414
rfoot -12.2934 -4.83479
rtoes 3.97361
lfemur -28.7929 1.59024 -5.22985
ltibia 83.9471
lfoot 6.12395 -3.32988
ltoes -11.2334
134
root -18.3321 16.839 14.3066 -161.289 -77.5821 174.037
lowerback 16.7309 -0.139317 2.29087
upperback 2.34277 0.336717 4.98855
thorax -6.89196 0.0539546 3.98695
lowerneck -14.6346 -0.205533 -8.2114
upperneck 12.1407 1.39316 0.0286281
head 6.04076 0.264974 1.46221
rclavicle -2.94201e-014 4.77083e-015
rhumerus -43.1059 18.6169 -93.6403
rradius 121.85
rwrist -0.598845
rhand -20.2692 23.2151
rfingers 7.12502
rthumb 6.07989 -6.67767
lclavicle -2.94201e-014 4.77083e-015
lhumerus -52.5916 -0.85662 91.9669
lradius 87.1035
lwrist 18.231
lhand -21.6538 3.68994
lfingers 7.12502
lthumb 4.74302 33.6168
rfemur -16.1972 -5.80802 38.3351
rtibia 38.3314
rfoot -12.6259 -4.92906
rtoes 2.05075
lfemur -31.3586 2.58284 -4.19988
ltibia 84.4934
lfoot 4.51227 -3.04217
ltoes -9.53003
135
root -18.7192 16.8295 14.3455 -162.988 -77.9172 175.795
lowerback 16.589 0.339369 2.80785
upperback 2.26647 1.05428 4.81756
thorax -6.91998 0.390495 3.34448
lowerneck -14.5801 -0.718275 -7.31057
upperneck 12.2654 0.533375 -0.0989031
head 6.10727 -0.120057 1.19858
rclavicle 2.38542e-014 3.81667e-014
rhumerus -41.4776 17.4314 -95.0481
rradius 122.327
rwrist -1.11424
rhand -20.2754 23.9645
rfingers 7.12502
rthumb 6.07397 -5.92847
lclavicle 2.38542e-014 3.81667e-014
lhumerus -53.7106 -2.2621 91.7756
lradius 87.4089
lwrist 17.968
lhand -21.586 3.91777
lfingers 7.12502
lthumb 4.80851 33.8432
rfemur -14.1316 -5.59974 38.1196
rtibia 37.0715
rfoot -12.7047 -4.9739
rtoes 0.565766
lfemur -34.2913 3.20341 -3.45869
ltibia 84.6161
lfoot 3.31777 -2.10259
ltoes -9.08113
136
root -19.1151 16.8378 14.3973 -164.431 -78.4931 177.375
lowerback 16.4258 0.637159 3.46096
upperback 2.12659 1.56475 4.78277
thorax -6.98123 0.622009 2.82265
lowerneck -14.574 -1.3042 -6.80308
upperneck 12.5142 -0.353289 -0.143429
head 6.21556 -0.533924 1.01979
rclavicle -1.59028e-015 1.27222e-014
rhumerus -40.1449 16.9801 -95.2251
rradius 123.23
rwrist -2.90295
rhand -19.8936 24.3635
rfingers 7.12502
rthumb 6.44254 -5.51849
lclavicle -1.59028e-015 1.27222e-014
lhumerus -54.6986 -3.16681 92.2508
lradius 87.7527
lwrist 18.0876
lhand -23.0829 4.64158
lfingers 7.12502
lthumb 3.36302 34.5948
rfemur -12.1618 -6.28403 37.7332
rtibia 35.4725
rfoot -12.6549 -4.09084
rtoes 0.0117141
lfemur -37.2443 3.18433 -2.94764
ltibia 84.196
lfoot 1.98534 -0.5683
ltoes -7.9674
137
root -19.5211 16.8413 14.4484 -167.273 -79.0316 180.358
lowerback 16.1442 0.765857 4.27047
upperback 2.01007 1.87123 4.95852
thorax -6.93885 0.748053 2.488
lowerneck -14.3337 -1.66075 -6.811
upperneck 12.5106 -0.855175 -0.150271
head 6.191 -0.777638 0.97183
rclavicle 8.74653e-015 -2.8625e-014
rhumerus -39.5737 17.7334 -94.4152
rradius 124.926
rwrist -6.50859
rhand -19.4771 24.2654
rfingers 7.12502
rthumb 6.84462 -5.60397
lclavicle 8.74653e-015 -2.8625e-014
lhumerus -55.5136 -3.15051 92.833
lradius 88.1293
lwrist 18.6124
lhand -24.1404 4.97591
lfingers 7.12502
lthumb 2.34174 34.9428
rfemur -10.0825 -8.92576 37.4084
rtibia 33.6861
rfoot -12.3089 -1.7075
rtoes -4.42441
lfemur -39.9615 3.27744 -2.303
ltibia 83.3137
lfoot -0.606419 -4.11643
ltoes -4.2915
138
root -19.9397 16.8476 14.4557 -170.301 -78.8455 183.258
lowerback 15.8876 1.24803 4.35279
upperback 2.1042 2.49749 5.13184
thorax -6.70927 1.05057 2.49413
lowerneck -14.0866 -2.02371 -6.88782
upperneck 12.3337 -1.35756 -0.132743
head 6.11065 -1.01836 0.943625
rclavicle 2.06736e-014 7.95139e-015
rhumerus -39.2734 18.4796 -94.4789
rradius 126.425
rwrist -9.6798
rhand -20.6782 24.8709
rfingers 7.12502
rthumb 5.68505 -5.03283
lclavicle 2.06736e-014 7.95139e-015
lhumerus -56.199 -3.51683 93.0194
lradius 88.5624
lwrist 18.4963
lhand -23.2109 4.87043
lfingers 7.12502
lthumb 3.23943 34.8256
rfemur -7.23996 -5.10861 37.911
rtibia 31.8396
rfoot -10.4697 -5.39805
rtoes -14.1421
lfemur -41.6958 4.22726 -2.00612
ltibia 81.7319
lfoot -1.91139 -2.1783
ltoes -6.78293
139
root -20.3684 16.8604 14.461 -171.908 -78.7032 184.717
lowerback 15.491 1.76012 4.42971
upperback 2.24914 3.13958 5.05097
thorax -6.33484 1.36603 2.23526
lowerneck -14.2147 -2.5438 -6.93859
upperneck 12.5872 -2.08249 0.18598
head 6.24089 -1.34984 0.982735
rclavicle 1.19271e-014 1.11319e-014
rhumerus -39.1237 18.7723 -94.9346
rradius 127.649
rwrist -11.6586
rhand -21.9439 26.2026
rfingers 7.12502
rthumb 4.46292 -3.73038
lclavicle 1.19271e-014 1.11319e-014
lhumerus -56.7483 -4.57979 93.0644
lradius 89.1153
lwrist 18.6639
lhand -22.8065 4.78363
lfingers 7.12502
lthumb 3.62999 34.7325
rfemur -4.58475 -3.04705 37.8774
rtibia 30.0395
rfoot -8.27073 -6.18265
rtoes -18.1692
lfemur -43.1754 4.70602 -2.20695
ltibia 79.5584
lfoot -3.31115 -1.37898
ltoes -11.9356
140
root -20.8068 16.8941 14.4733 -172.176 -79.0903 184.957
lowerback 15.0006 2.12946 4.5797
upperback 2.25646 3.61415 4.91875
thorax -6.04326 1.60206 1.92623
lowerneck -14.4561 -3.18163 -7.24469
upperneck 13.1329 -2.94071 0.727575
head 6.49987 -1.74418 1.11604
rclavicle 1.19271e-014 -3.18055e-014
rhumerus -39.1421 18.5867 -94.8333
rradius 128.856
rwrist -12.8766
rhand -20.701 26.6007
rfingers 7.12502
rthumb 5.66299 -3.30358
lclavicle 1.19271e-014 -3.18055e-014
lhumerus -57.2531 -5.65837 93.3107
lradius 89.6308
lwrist 19.3497
lhand -23.1109 4.92493
lfingers 7.12502
lthumb 3.33601 34.8786
rfemur -2.41876 -2.22365 37.3976
rtibia 28.3904
rfoot -6.30812 -5.50572
rtoes -16.6086
lfemur -44.6932 4.22995 -2.70093
ltibia 76.7717
lfoot -4.28991 -1.26726
ltoes -15.1082
